<svg width="32" height="32" viewBox="0 0 32 32" fill="none" xmlns="http://www.w3.org/2000/svg">
<path d="M27.45 4.55001C24.4286 1.52858 19.5393 1.52858 16.5214 4.55001L13.0607 8.01072L14.8822 9.83215L18.3429 6.37144C20.2643 4.45001 23.5071 4.24644 25.6286 6.37144C27.7536 8.49644 27.55 11.7357 25.6286 13.6572L22.1679 17.1179L23.9929 18.9429L27.4536 15.4822C30.4679 12.4607 30.4679 7.57144 27.45 4.55001ZM13.6607 25.6286C11.7393 27.55 8.49644 27.7536 6.37501 25.6286C4.25001 23.5036 4.45358 20.2643 6.37501 18.3429L9.83572 14.8822L8.01072 13.0572L4.55001 16.5179C1.52858 19.5393 1.52858 24.4286 4.55001 27.4464C7.57144 30.4643 12.4607 30.4679 15.4786 27.4464L18.9393 23.9857L17.1179 22.1643L13.6607 25.6286ZM7.01072 5.19286C6.95702 5.13969 6.88451 5.10986 6.80894 5.10986C6.73337 5.10986 6.66085 5.13969 6.60715 5.19286L5.19286 6.60715C5.13969 6.66085 5.10986 6.73337 5.10986 6.80894C5.10986 6.88451 5.13969 6.95702 5.19286 7.01072L24.9929 26.8107C25.1036 26.9214 25.2857 26.9214 25.3964 26.8107L26.8107 25.3964C26.9214 25.2857 26.9214 25.1036 26.8107 24.9929L7.01072 5.19286Z" fill="black"/>
</svg>
