<svg width="32" height="32" viewBox="0 0 32 32" fill="none" xmlns="http://www.w3.org/2000/svg">
<path d="M16 8.675C11.9464 8.675 8.67497 11.9464 8.67497 16C8.67497 20.0536 11.9464 23.325 16 23.325C20.0535 23.325 23.325 20.0536 23.325 16C23.325 11.9464 20.0535 8.675 16 8.675ZM16 20.7607C13.3785 20.7607 11.2393 18.6214 11.2393 16C11.2393 13.3786 13.3785 11.2393 16 11.2393C18.6214 11.2393 20.7607 13.3786 20.7607 16C20.7607 18.6214 18.6214 20.7607 16 20.7607ZM23.625 6.66786C22.6785 6.66786 21.9143 7.43214 21.9143 8.37857C21.9143 9.325 22.6785 10.0893 23.625 10.0893C24.5714 10.0893 25.3357 9.32857 25.3357 8.37857C25.336 8.15384 25.2919 7.93126 25.206 7.72358C25.1202 7.5159 24.9942 7.3272 24.8353 7.16828C24.6763 7.00937 24.4876 6.88338 24.28 6.7975C24.0723 6.71163 23.8497 6.66758 23.625 6.66786ZM30.2785 16C30.2785 14.0286 30.2964 12.075 30.1857 10.1071C30.075 7.82143 29.5535 5.79286 27.8821 4.12143C26.2071 2.44643 24.1821 1.92857 21.8964 1.81786C19.925 1.70714 17.9714 1.725 16.0035 1.725C14.0321 1.725 12.0785 1.70714 10.1107 1.81786C7.82497 1.92857 5.7964 2.45 4.12497 4.12143C2.44997 5.79643 1.93211 7.82143 1.8214 10.1071C1.71068 12.0786 1.72854 14.0321 1.72854 16C1.72854 17.9679 1.71068 19.925 1.8214 21.8929C1.93211 24.1786 2.45354 26.2071 4.12497 27.8786C5.79997 29.5536 7.82497 30.0714 10.1107 30.1821C12.0821 30.2929 14.0357 30.275 16.0035 30.275C17.975 30.275 19.9285 30.2929 21.8964 30.1821C24.1821 30.0714 26.2107 29.55 27.8821 27.8786C29.5571 26.2036 30.075 24.1786 30.1857 21.8929C30.3 19.925 30.2785 17.9714 30.2785 16ZM27.1357 24.4214C26.875 25.0714 26.5607 25.5571 26.0571 26.0571C25.5535 26.5607 25.0714 26.875 24.4214 27.1357C22.5428 27.8821 18.0821 27.7143 16 27.7143C13.9178 27.7143 9.45354 27.8821 7.57497 27.1393C6.92497 26.8786 6.43925 26.5643 5.93925 26.0607C5.43568 25.5571 5.1214 25.075 4.86068 24.425C4.11783 22.5429 4.28568 18.0821 4.28568 16C4.28568 13.9179 4.11783 9.45357 4.86068 7.575C5.1214 6.925 5.43568 6.43929 5.93925 5.93929C6.44283 5.43929 6.92497 5.12143 7.57497 4.86071C9.45354 4.11786 13.9178 4.28571 16 4.28571C18.0821 4.28571 22.5464 4.11786 24.425 4.86071C25.075 5.12143 25.5607 5.43571 26.0607 5.93929C26.5643 6.44286 26.8785 6.925 27.1393 7.575C27.8821 9.45357 27.7143 13.9179 27.7143 16C27.7143 18.0821 27.8821 22.5429 27.1357 24.4214Z" fill="black"/>
</svg>
