<svg width="24" height="24" viewBox="0 0 24 24" fill="none" xmlns="http://www.w3.org/2000/svg">
<path d="M11.1965 2.35715H12.8036C12.9465 2.35715 13.0179 2.42858 13.0179 2.57143V21.4286C13.0179 21.5714 12.9465 21.6429 12.8036 21.6429H11.1965C11.0536 21.6429 10.9822 21.5714 10.9822 21.4286V2.57143C10.9822 2.42858 11.0536 2.35715 11.1965 2.35715Z" fill="black"/>
<path d="M3.00005 10.9821H21.0001C21.1429 10.9821 21.2143 11.0536 21.2143 11.1964V12.8036C21.2143 12.9464 21.1429 13.0179 21.0001 13.0179H3.00005C2.8572 13.0179 2.78577 12.9464 2.78577 12.8036V11.1964C2.78577 11.0536 2.8572 10.9821 3.00005 10.9821Z" fill="black"/>
</svg>
