<svg width="32" height="32" viewBox="0 0 32 32" fill="none" xmlns="http://www.w3.org/2000/svg">
<path d="M30.8571 6.7964C29.7643 7.26783 28.575 7.60711 27.35 7.73926C28.6218 6.98367 29.5742 5.78997 30.0286 4.38211C28.8351 5.09208 27.5277 5.58991 26.1643 5.85354C25.5944 5.24435 24.9053 4.75904 24.1397 4.42785C23.374 4.09667 22.5484 3.9267 21.7143 3.92854C18.3393 3.92854 15.625 6.66426 15.625 10.0214C15.625 10.4928 15.6821 10.9643 15.775 11.4178C10.7214 11.1535 6.21428 8.73926 3.21785 5.04283C2.67187 5.97538 2.38576 7.03721 2.38928 8.11783C2.38928 10.2321 3.46428 12.0964 5.10357 13.1928C4.13751 13.1548 3.19408 12.8893 2.35 12.4178V12.4928C2.35 15.4535 4.44285 17.9071 7.23214 18.4714C6.70842 18.6074 6.16966 18.677 5.62857 18.6785C5.23214 18.6785 4.85714 18.6393 4.47857 18.5857C5.25 21 7.49643 22.7535 10.1714 22.8107C8.07857 24.45 5.45714 25.4143 2.61071 25.4143C2.1 25.4143 1.62857 25.3964 1.13928 25.3393C3.83928 27.0714 7.04285 28.0714 10.4929 28.0714C21.6929 28.0714 27.8214 18.7928 27.8214 10.7393C27.8214 10.475 27.8214 10.2107 27.8036 9.9464C28.9893 9.07854 30.0286 8.00354 30.8571 6.7964Z" fill="black"/>
</svg>
