<svg width="24" height="24" viewBox="0 0 24 24" fill="none" xmlns="http://www.w3.org/2000/svg">
<path d="M21.8572 1.28571H2.14291C1.6688 1.28571 1.28577 1.66874 1.28577 2.14285V21.8571C1.28577 22.3312 1.6688 22.7143 2.14291 22.7143H21.8572C22.3313 22.7143 22.7143 22.3312 22.7143 21.8571V2.14285C22.7143 1.66874 22.3313 1.28571 21.8572 1.28571ZM20.7858 13.7143H12.4286V10.2857H20.7858V13.7143ZM20.7858 20.7857H3.21434V3.21428H20.7858V8.57142H11.5715C11.0974 8.57142 10.7143 8.95446 10.7143 9.42856V14.5714C10.7143 15.0455 11.0974 15.4286 11.5715 15.4286H20.7858V20.7857ZM13.8215 12C13.8215 12.2842 13.9344 12.5567 14.1353 12.7576C14.3362 12.9585 14.6088 13.0714 14.8929 13.0714C15.1771 13.0714 15.4496 12.9585 15.6505 12.7576C15.8515 12.5567 15.9643 12.2842 15.9643 12C15.9643 11.7158 15.8515 11.4433 15.6505 11.2424C15.4496 11.0414 15.1771 10.9286 14.8929 10.9286C14.6088 10.9286 14.3362 11.0414 14.1353 11.2424C13.9344 11.4433 13.8215 11.7158 13.8215 12Z" fill="black"/>
</svg>
